<svg width="251" height="50" viewBox="0 0 251 50" fill="none" xmlns="http://www.w3.org/2000/svg">
<rect width="50.0177" height="50" rx="16" fill="#A5F04B"/>
<path d="M22.4669 41.9541H22.3895C17.1326 41.9197 12.8737 38.0049 12.8737 33.2126V31.3886C12.8737 28.9107 11.5315 26.7425 10 26.7425V23.258C11.5315 23.258 12.8737 21.0812 12.8737 18.6119V16.7879C12.8737 11.9869 17.1326 8.0808 22.3895 8.04639H22.4669V11.5309C19.1028 11.5309 16.3582 13.8884 16.3582 16.7879V18.6119C16.3582 21.2361 15.4376 23.5247 13.975 25.0045C15.4376 26.4844 16.3582 28.773 16.3582 31.3972V33.2212C16.3582 36.1207 19.0942 38.4781 22.4669 38.4781V41.9627V41.9541Z" fill="#6C1EFF"/>
<path d="M27.6282 41.9539H27.5508V38.4694C30.9149 38.4694 33.6595 36.1119 33.6595 33.2124V31.3884C33.6595 28.7642 34.5801 26.4756 36.0428 24.9958C34.5801 23.5159 33.6595 21.2273 33.6595 18.6031V16.7791C33.6595 13.8796 30.9235 11.5222 27.5508 11.5222V8.0376H27.6282C32.8852 8.07201 37.1441 11.9868 37.1441 16.7791V18.6031C37.1441 21.081 38.4862 23.2492 40.0177 23.2492V26.7337C38.4862 26.7337 37.1441 28.9105 37.1441 31.3798V33.2038C37.1441 38.0047 32.8852 41.9109 27.6282 41.9453V41.9539Z" fill="#6C1EFF"/>
<path d="M29.3232 24.9955C30.302 24.9955 31.0956 24.2174 31.0956 23.2575C31.0956 22.2977 30.302 21.5195 29.3232 21.5195C28.3443 21.5195 27.5508 22.2977 27.5508 23.2575C27.5508 24.2174 28.3443 24.9955 29.3232 24.9955Z" fill="#6C1EFF"/>
<path d="M20.6865 24.9955C21.6653 24.9955 22.4589 24.2174 22.4589 23.2575C22.4589 22.2977 21.6653 21.5195 20.6865 21.5195C19.7076 21.5195 18.9141 22.2977 18.9141 23.2575C18.9141 24.2174 19.7076 24.9955 20.6865 24.9955Z" fill="#6C1EFF"/>
<path d="M81.3325 25.0025C81.3325 23.2478 81.5871 21.6069 82.0961 20.0742C82.6052 18.5416 83.3634 17.1985 84.3707 16.0503C85.3781 14.9022 86.6291 13.9924 88.1293 13.3208C89.6294 12.6493 91.3516 12.3135 93.3013 12.3135C95.251 12.3135 96.9948 12.6493 98.4462 13.3208C99.8977 13.9924 101.095 14.9022 102.037 16.0503C102.979 17.1985 103.678 18.5416 104.144 20.0742C104.604 21.6069 104.837 23.2478 104.837 25.0025V25.9124C104.804 26.0694 104.788 26.2319 104.788 26.389H87.8422C88.0047 28.2411 88.5029 29.7846 89.3532 31.0357C90.1981 32.2813 91.5953 32.9041 93.545 32.9041C94.5361 32.9041 95.3214 32.7037 95.9171 32.3029C96.5074 31.9076 96.9786 31.4852 97.3306 31.0357C97.7151 30.4941 97.9859 29.8713 98.143 29.1672H104.604C104.252 30.7649 103.613 32.1838 102.687 33.4294C101.891 34.4801 100.748 35.4549 99.264 36.3485C97.7801 37.2421 95.7925 37.6862 93.3067 37.6862C91.2975 37.6862 89.5374 37.3504 88.0426 36.6789C86.5425 36.0073 85.2968 35.0975 84.3112 33.9493C83.3201 32.8012 82.5781 31.4581 82.0853 29.9254C81.5925 28.3928 81.3434 26.7518 81.3434 24.9971L81.3325 25.0025ZM93.3013 17.101C91.7036 17.101 90.4905 17.5884 89.6619 18.5632C88.8333 19.5381 88.2917 20.7566 88.0318 22.2243H98.1809C97.9588 20.7566 97.4931 19.5381 96.7944 18.5632C96.0904 17.5938 94.926 17.101 93.3013 17.101Z" fill="white"/>
<path d="M116.28 19.9274L120.634 13.0332H128.248L119.968 24.52L128.92 36.9707H121.354L116.28 29.1667L111.205 36.9707H103.639L112.592 24.52L104.311 13.0332H111.925L116.285 19.9274H116.28Z" fill="white"/>
<path d="M130.593 13.0338H142.085C148.405 13.0338 151.562 15.1892 151.562 19.4948C151.562 20.4533 151.373 21.2494 150.988 21.8885C150.604 22.5276 150.192 23.0204 149.743 23.3724C149.201 23.7894 148.578 24.109 147.874 24.331V24.5206C148.67 24.7426 149.407 25.0946 150.078 25.5712C150.62 25.9882 151.113 26.5515 151.562 27.2717C152.006 27.9866 152.234 28.9235 152.234 30.0717C152.234 32.3679 151.47 34.0902 149.938 35.2383C148.405 36.3864 146.027 36.9605 142.805 36.9605H130.598V13.0229L130.593 13.0338ZM141.651 22.6088C143.948 22.6088 145.096 21.7639 145.096 20.0688C145.096 18.3737 144.089 17.5776 142.079 17.5776H137.053V22.6034H141.651V22.6088ZM137.053 26.676V32.4221H142.561C144.701 32.4221 145.767 31.4798 145.767 29.6005C145.767 28.6744 145.437 27.9595 144.787 27.445C144.132 26.936 143.233 26.676 142.085 26.676H137.059H137.053Z" fill="white"/>
<path d="M176.459 36.6079H170.237V32.6815H169.998C169.549 33.5426 168.991 34.3116 168.325 34.9831C167.718 35.5897 166.96 36.1313 166.05 36.6133C165.14 37.0899 164.014 37.3282 162.676 37.3282C161.014 37.3282 159.638 37.0736 158.533 36.5645C157.434 36.0555 156.556 35.3514 155.901 34.4578C155.246 33.5642 154.791 32.5081 154.536 31.3004C154.282 30.0873 154.152 28.793 154.152 27.4228V12.6812H160.569V26.0364C160.569 28.1106 160.878 29.6324 161.501 30.6072C162.124 31.5821 163.202 32.0695 164.734 32.0695C166.456 32.0695 167.767 31.5225 168.661 30.4177C169.554 29.3129 170.004 27.5528 170.004 25.1265V12.6812H176.465V36.6187L176.459 36.6079Z" fill="white"/>
<path d="M186.699 13.0332H193.978L202.594 36.9707H195.7L190.192 19.9762L184.641 36.9707H178.132L186.699 13.0332Z" fill="white"/>
<path d="M212.123 13.0332H219.401L228.018 36.9707H221.124L215.616 19.9762L210.065 36.9707H203.555L212.123 13.0332Z" fill="white"/>
<path d="M58.0178 13.418V18.4438H65.3886V30.8945V37.3555H71.855V29.7464V18.4438H79.6537V13.418H58.0178Z" fill="white"/>
</svg>
